<svg xmlns="http://www.w3.org/2000/svg" version="1.1" xmlns:xlink="http://www.w3.org/1999/xlink" xmlns:svgjs="http://svgjs.dev/svgjs" width="1500" height="1500" viewBox="0 0 1500 1500"><rect width="1500" height="1500" fill="#ffffff"></rect><g transform="matrix(0.6666666666666666,0,0,0.6666666666666666,249.39393939393938,636.5292929292929)"><svg viewBox="0 0 396 90" data-background-color="#003366" preserveAspectRatio="xMidYMid meet" height="340" width="1500" xmlns="http://www.w3.org/2000/svg" xmlns:xlink="http://www.w3.org/1999/xlink"><g id="tight-bounds" transform="matrix(1,0,0,1,0.2400000000000091,0.05454545454546178)"><svg viewBox="0 0 395.52 89.89090909090908" height="89.89090909090908" width="395.52"><g><svg viewBox="0 0 395.52 89.89090909090908" height="89.89090909090908" width="395.52"><g><svg viewBox="0 0 395.52 89.89090909090908" height="89.89090909090908" width="395.52"><g id="textblocktransform"><svg viewBox="0 0 395.52 89.89090909090908" height="89.89090909090908" width="395.52" id="textblock"><g><svg viewBox="0 0 395.52 89.89090909090908" height="89.89090909090908" width="395.52"><g transform="matrix(1,0,0,1,0,0)"><svg width="395.52" viewBox="0.5 -35.5 158.39 36" height="89.89090909090908" data-palette-color="#ffffff"><path d="M0.5 0L8.05-35.5 31.05-35.5 29.8-29.45 13.6-29.45 11.8-20.9 25.75-20.9 24.55-15.3 10.6-15.3 8.65-6.05 25.25-6.05 23.95 0 0.5 0ZM45.25-10.7L30.8-10.7 32.1-16.75 46.55-16.75 45.25-10.7ZM49.5 0L57.05-35.5 64.45-35.5 69.8-15.3 83.8-35.5 91.15-35.5 83.59 0 76.75 0 81.75-23.5 69.7-6 65.95-6 61.35-23.5 56.35 0 49.5 0ZM100.09 0.5L100.09 0.5Q97.19 0.5 95.12-0.93 93.04-2.35 91.92-4.78 90.79-7.2 90.79-10.25L90.79-10.25Q90.79-13.5 91.94-16.45 93.09-19.4 95.12-21.7 97.14-24 99.72-25.33 102.29-26.65 105.14-26.65L105.14-26.65Q107.84-26.65 109.74-25.23 111.64-23.8 112.34-21.6L112.34-21.6 113.34-26.1 120.04-26.1 116.14-7.7Q116.09-7.45 116.04-7.23 115.99-7 115.99-6.8L115.99-6.8Q115.99-5.75 117.19-5.7L117.19-5.7 115.99 0Q115.09 0.15 114.42 0.25 113.74 0.35 113.24 0.35L113.24 0.35Q111.44 0.35 110.44-0.4 109.44-1.15 109.44-2.65L109.44-2.65Q109.44-2.85 109.49-3.13 109.54-3.4 109.59-3.78 109.64-4.15 109.74-4.55L109.74-4.55Q107.84-2.1 105.24-0.8 102.64 0.5 100.09 0.5ZM103.09-5.2L103.09-5.2Q103.94-5.2 104.89-5.53 105.84-5.85 106.77-6.43 107.69-7 108.49-7.83 109.29-8.65 109.84-9.6L109.84-9.6 111.14-15.85Q110.99-17.3 110.24-18.45 109.49-19.6 108.39-20.28 107.29-20.95 106.04-20.95L106.04-20.95Q104.44-20.95 102.97-20.13 101.49-19.3 100.34-17.93 99.19-16.55 98.52-14.83 97.84-13.1 97.84-11.3L97.84-11.3Q97.84-9.6 98.49-8.2 99.14-6.8 100.32-6 101.49-5.2 103.09-5.2ZM121.04 0L126.59-26.2 132.74-26.2 131.54-20.6Q133.44-23.3 135.81-24.88 138.19-26.45 140.49-26.45L140.49-26.45Q140.99-26.45 141.27-26.43 141.54-26.4 141.69-26.35L141.69-26.35 140.44-20.4Q137.59-20.4 135.06-19.23 132.54-18.05 131.09-15.85L131.09-15.85 127.74 0 121.04 0ZM142.49-4.15L142.49-4.15Q142.49-4.6 142.54-5.05 142.59-5.5 142.69-6L142.69-6 145.89-21.05 142.64-21.05 143.74-26.2 146.94-26.2 148.74-34.7 155.44-34.7 153.64-26.2 158.89-26.2 157.79-21.05 152.59-21.05 149.84-8.25Q149.79-8.05 149.76-7.85 149.74-7.65 149.74-7.45L149.74-7.45Q149.74-6.5 150.29-6.1 150.84-5.7 151.64-5.7L151.64-5.7Q152.29-5.7 152.96-5.85 153.64-6 154.24-6.25 154.84-6.5 155.29-6.65L155.29-6.65 155.49-1.35Q154.49-0.9 153.24-0.48 151.99-0.05 150.64 0.2 149.29 0.45 147.94 0.45L147.94 0.45Q145.59 0.45 144.04-0.63 142.49-1.7 142.49-4.15Z" opacity="1" transform="matrix(1,0,0,1,0,0)" fill="#000000" class="wordmark-text-0" data-fill-palette-color="primary" id="text-0"></path></svg></g></svg></g></svg></g></svg></g></svg></g><defs></defs></svg><rect width="395.52" height="89.89090909090908" fill="none" stroke="none" visibility="hidden"></rect></g></svg></g></svg>